<?xml version="1.0" encoding="utf-8"?>
<svg id="master-artboard" viewBox="0 0 592.0293579101562 463.099609375" version="1.1" xmlns="http://www.w3.org/2000/svg" x="0px" y="0px" style="enable-background:new 0 0 336 235.2;" width="592.0293579101562px" height="463.099609375px"><defs><linearGradient id="gradient-0" gradientUnits="objectBoundingBox" x1="0.5" y1="0" x2="0.5" y2="1">
                <stop offset="0" style="stop-color: #ffffff"/>
                <stop offset="1" style="stop-color: #cccccc"/>
              </linearGradient><linearGradient id="gradient-1" gradientUnits="userSpaceOnUse" x1="635.3760986328125" y1="1042.5255126953125" x2="635.3759765625" y2="1133.24267578125">
                <stop offset="0" style="stop-color: #ffffff"/>
                <stop offset="1" style="stop-color: #cccccc"/>
              </linearGradient><linearGradient id="gradient-2" gradientUnits="userSpaceOnUse" x1="645.9685668945312" y1="259.9319763183594" x2="645.9685668945312" y2="343.8394470214844" gradientTransform="matrix(0.9882661448710301, 0.15273651745057248, -0.24319507688726597, 1.5735684565808807, 70.79387854801118, -247.75177176294716)">
                <stop offset="0" style="stop-color: #ffffff"/>
                <stop offset="1" style="stop-color: #cccccc"/>
              </linearGradient><style id="ee-google-fonts">@import url(https://fonts.googleapis.com/css?family=Allan:400,700);</style></defs><rect id="ee-background" x="0" y="0" width="592.0293579101562" height="463.099609375" style="fill: white; fill-opacity: 0; pointer-events: none;"/>














<g transform="matrix(0.8939977884292603, 0, 0, 0.8939977884292603, -435.3505407007633, -199.48342465952828)"><rect id="rect-1" x="0" y="0" width="1400" height="980" style="fill: rgb(255, 255, 255); fill-opacity: 0; pointer-events: none;"/><g transform="matrix(-2.4350690841674805, 1.8812325000762942, -1.8812325000762942, -2.4350690841674805, 2005.145005851633, 928.8056142456519)"><g id="Layer_2_1_" transform="matrix(1, 0, 0, 1, 0, 0)">
	<g id="Layer_1-2_1_">
		<path class="st0" d="M277,396.8c0,20.6-17,37.2-38,37.2s-38-16.7-38-37.2s38-62.8,38-62.8S277,376.2,277,396.8z" style="fill: rgb(176, 100, 70); stroke: rgb(0, 0, 0); stroke-width: 1;"/>
	</g>
</g></g><path d="M 689.4580078125 657.8328857421875 L 605.1242065429688 628.3160400390625 L 630.4243774414062 590.3658447265625 L 714.7581787109375 619.8826293945312" style="fill: rgb(176, 100, 70); fill-opacity: 1; stroke: rgb(0, 0, 0); stroke-opacity: 1; stroke-width: 0; paint-order: stroke;" transform="matrix(0.8696034550666809, 0.49378028512001043, -0.49378028512001043, 0.8696034550666809, 514.4077011641328, -318.2673227660667)"/><path d="M 813.850341796875 436.4566650390625 C 800.451540427381 486.70219019601075 714.1246566301566 517.8950825494763 744.2749633789062 404.83148193359375 L 695.7830810546875 324.7143859863281 L 750.6000366210938 282.5474853515625 L 822.2837524414062 373.206298828125 C 863.6640395102842 380.9310328644055 921.6941475169618 437.91156857793624 813.8504028320312 434.3482971191406" style="fill: rgb(255, 255, 255); fill-opacity: 1; stroke: rgb(0, 0, 0); stroke-opacity: 1; stroke-width: 5; paint-order: fill;" transform="matrix(0.5729557275772096, -0.09456347674131395, 0.09456347674131395, 0.5729557275772096, 358.31297460163296, 467.7734792358866)"/><g transform="matrix(0.7279281616210939, 0.02077058330178261, -0.02077058330178261, 0.7279281616210939, 405.1040512617892, 66.67099930119409)"><g transform="matrix(1, 0, 0, 1, 0, 0)"><g transform="matrix(1, 0, 0, 1, 0, 0)"><path d="M 580.299988 578.599976 H 617.699989 V 631.099976 H 580.299988 V 578.599976 Z" transform="matrix(0.7071000933647156, 0.7071000933647156, -0.7071000933647156, 0.7071000933647156, 603.119873046875, -246.36830139160156)" class="st14" style="fill: rgb(69, 78, 85); stroke: rgb(0, 0, 0); stroke-width: 3;"/><path d="M 563.099976 590.099976 H 615.599976 V 600.399976 H 563.099976 V 590.099976 Z" transform="matrix(0.7071000933647156, -0.7071000933647156, 0.7071000933647156, 0.7071000933647156, -248.29640197753906, 591.1093139648438)" class="st42" style="fill: rgb(48, 56, 62); stroke: rgb(0, 0, 0); stroke-width: 3;"/><path class="st14" d="M599.2,641.3L582,623.9l-17.4-17.3c-4.9-4.8-12.7-4.8-17.5,0.1l-1.9,1.9l26.2,25.8l25.7,26.4l1.9-1.9&#10;&#9;&#9;&#9;&#9;C603.9,654.1,604,646.2,599.2,641.3z" style="fill: rgb(69, 78, 85); stroke: rgb(0, 0, 0); stroke-width: 3;" transform="matrix(1, 0, 0, 1, 5.4569682106375694e-12, 1.3642420526593924e-12)"/><path class="st15" d="M464.2,791.7c5.9-16.9,75.9-88.9,82.4-96.1c11.8-13.2,27.7-30.1,30.1-28.5c5.7,3.6,13.4,0.4,18.3-4.3l2.1-2&#10;&#9;&#9;&#9;&#9;l-25.7-26.4l-26.2-25.8l-2,2.1c-4.7,4.8-8,12.5-4.4,18.2c1.6,2.5-15.4,18.3-28.6,30c-7.3,6.5-79.6,76.2-96.5,82&#10;&#9;&#9;&#9;&#9;C393.4,747.9,457.1,811.9,464.2,791.7z" style="fill: rgb(201, 125, 50); stroke: rgb(0, 0, 0); stroke-width: 3;" transform="matrix(1, 0, 0, 1, 5.4569682106375694e-12, 1.3642420526593924e-12)"/><path class="st42" d="M652.1,596.8L607,551.7l-3.4,3.4c-4.8,4.8-4.8,12.5,0,17.3l27.7,27.7c4.8,4.8,12.5,4.8,17.3,0L652.1,596.8z" style="fill: rgb(48, 56, 62); stroke: rgb(0, 0, 0); stroke-width: 3;" transform="matrix(1, 0, 0, 1, 3.637978807091713e-12, 9.094947017729282e-13)"/><path d="M 939.199982 450.200012 A 184.600006 184.600006 0 0 1 754.599976 634.800018 A 184.600006 184.600006 0 0 1 569.999969 450.200012 A 184.600006 184.600006 0 0 1 754.599976 265.600006 A 184.600006 184.600006 0 0 1 939.199982 450.200012 Z" class="st43" style="fill: rgb(147, 159, 171); stroke: rgb(0, 0, 0); stroke-width: 3;" transform="matrix(1, 0, 0, 1, 3.637978807091713e-12, 9.094947017729282e-13)"/><path class="st44" d="M880.5,322.1c70.5,70.5,70.5,184.9,0,255.4" style="fill: none; stroke: rgb(211, 213, 214); stroke-width: 3; stroke-linecap: round; stroke-miterlimit: 10;" transform="matrix(1, 0, 0, 1, 3.637978807091713e-12, 9.094947017729282e-13)"/><path d="M 927.599976 450.200012 A 173 173 0 0 1 754.599976 623.200012 A 173 173 0 0 1 581.599976 450.200012 A 173 173 0 0 1 754.599976 277.200012 A 173 173 0 0 1 927.599976 450.200012 Z" class="st14" style="fill: rgb(69, 78, 85); stroke: rgb(0, 0, 0); stroke-width: 3;" transform="matrix(1, 0, 0, 1, 3.637978807091713e-12, 9.094947017729282e-13)"/><path d="M 883.099976 450.200012 A 128.5 128.5 0 0 1 754.599976 578.700012 A 128.5 128.5 0 0 1 626.099976 450.200012 A 128.5 128.5 0 0 1 754.599976 321.700012 A 128.5 128.5 0 0 1 883.099976 450.200012 Z" class="st45" style="fill: rgb(60, 69, 76); stroke: rgb(0, 0, 0); stroke-width: 3;" transform="matrix(1, 0, 0, 1, 3.637978807091713e-12, 9.094947017729282e-13)"/><g transform="matrix(1, 0, 0, 1, 5.4569682106375694e-12, 1.3642420526593924e-12)">
				<path class="st16" d="M702,536.9c-9-2.8-26.2-30.7-29.7-39.4c-8.3-20.2-12.4-42.5-8.7-64c6.6-38.8,40.3-71.1,79.2-76.9&#10;&#9;&#9;&#9;&#9;&#9;s80.2,14.7,99.7,48.8c8.8,15.4,13.4,34.6,6.4,50.9c-8.4,19.5-30.3,29.2-50.8,34.8c-20.5,5.6-42.7,9.5-58.5,23.7&#10;&#9;&#9;&#9;&#9;&#9;c-5.7,5.1-10.3,11.4-16.3,16.2C717.3,535.8,709.3,539.1,702,536.9z" style="fill: rgb(255, 255, 255); stroke: rgb(0, 0, 0); stroke-width: 3;"/>
			</g><g transform="matrix(1, 0, 0, 1, 7.275957614183426e-12, 1.8189894035458565e-12)">
					<path d="M 773.499977 437 A 35.400002 35.400002 0 0 1 738.099976 472.400002 A 35.400002 35.400002 0 0 1 702.699974 437 A 35.400002 35.400002 0 0 1 738.099976 401.599998 A 35.400002 35.400002 0 0 1 773.499977 437 Z" class="st46" style="fill: rgb(242, 184, 54); stroke: rgb(0, 0, 0); stroke-width: 3;"/>
					<path d="M 758.000011 433.700012 A 24.799999 24.799999 0 0 1 733.200012 458.500011 A 24.799999 24.799999 0 0 1 708.400013 433.700012 A 24.799999 24.799999 0 0 1 733.200012 408.900013 A 24.799999 24.799999 0 0 1 758.000011 433.700012 Z" class="st47" style="fill: rgb(255, 205, 92); stroke: rgb(0, 0, 0); stroke-width: 3;"/>
				</g><path class="st48" d="M716.9,434.1c-1.6,1.6-1.9,4.4-0.4,6.2c1.5,1.9,4.1,2.6,6.3,1.3c2.7-1.6,3.2-5.3,1-7.5&#10;&#9;&#9;&#9;&#9;&#9;C721.9,432.3,718.8,432.3,716.9,434.1z" style="fill: rgb(255, 255, 255); fill-opacity: 0.6; stroke: rgb(0, 0, 0); stroke-width: 3;" transform="matrix(1, 0, 0, 1, 7.275957614183426e-12, 1.8189894035458565e-12)"/><path class="st48" d="M736.2,421c-0.8-3.1-3.3-5.5-6.4-6.4c-3.2-0.9-6.4,0.1-8.9,2.3c-0.6,0.6-1.1,1.4-1.6,2.1&#10;&#9;&#9;&#9;&#9;&#9;c-1.8,2.6-1.5,6.5,0,9.1c1.8,3,4.9,4.5,8.3,4.4c-0.1,0-0.2,0-0.4,0l0.2,0C733.3,432.5,737.8,426.8,736.2,421z" style="fill: rgb(255, 255, 255); fill-opacity: 0.6; stroke: rgb(0, 0, 0); stroke-width: 3;" transform="matrix(1, 0, 0, 1, 7.275957614183426e-12, 1.8189894035458565e-12)"/></g></g></g><path d="M 300.4684143066406 432.2399597167969" style="fill: rgb(51, 51, 51); fill-opacity: 1; stroke: rgb(0, 0, 0); stroke-opacity: 1; stroke-width: 0; paint-order: stroke;" transform="matrix(0.8095238208770752, 0, 0, 0.8095238208770752, 33.83950424194336, -30.113632202148438)"/></g><path d="M 311.2275085449219 631.37841796875 L 333.4775085449219 631.37841796875 C 335.870849609375 631.425048828125 336.7841796875 632.8217163085938 336.2174987792969 635.5684204101562 L 334.6474914550781 643.2883911132812 C 334.5208435058594 643.8150634765625 334.3041687011719 644.33837890625 333.99749755859375 644.8583984375 C 333.0375061035156 646.2584228515625 331.86083984375 646.9583740234375 330.4674987792969 646.9583740234375 L 307.23748779296875 646.9583740234375 L 298.5375061035156 681.1083984375 C 298.0108337402344 682.9817504882812 296.7008361816406 683.9417114257812 294.6075134277344 683.9884033203125 L 283.48748779296875 683.9884033203125 C 282.92083740234375 683.9884033203125 282.4175109863281 683.8583984375 281.9775085449219 683.598388671875 C 280.84417724609375 682.8583984375 280.4741516113281 681.6350708007812 280.86749267578125 679.9284057617188 L 300.0375061035156 604.8184204101562 L 295.3974914550781 604.8184204101562 C 295.0441589355469 604.8184204101562 294.71417236328125 604.7950439453125 294.4075012207031 604.7484130859375 C 292.6675109863281 604.4484252929688 292.1675109863281 602.9017333984375 292.9075012207031 600.1083984375 L 294.99749755859375 591.8583984375 C 295.17083740234375 591.078369140625 295.36749267578125 590.4917602539062 295.5874938964844 590.098388671875 C 295.8941650390625 589.53173828125 296.5708312988281 589.2484130859375 297.61749267578125 589.2484130859375 L 307.1675109863281 589.2484130859375 L 318.2974853515625 589.2484130859375 L 346.1675109863281 589.2484130859375 C 348.7408447265625 589.2883911132812 349.7441711425781 590.68505859375 349.177490234375 593.4384155273438 L 347.4775085449219 601.1583862304688 C 347.34417724609375 601.6784057617188 347.1041564941406 602.2017211914062 346.75750732421875 602.7283935546875 C 345.7508239746094 604.1217041015625 344.50750732421875 604.8184204101562 343.0274963378906 604.8184204101562 L 317.9674987792969 604.8184204101562 L 311.2275085449219 631.37841796875 ZM 361.34423828125 634.7883911132812 C 358.7242431640625 644.7283935546875 357.41424560546875 652.8184204101562 357.41424560546875 659.0584106445312 C 357.41424560546875 665.7317504882812 358.8975524902344 669.0684204101562 361.8642272949219 669.0684204101562 C 362.517578125 669.0684204101562 363.1708984375 668.9817504882812 363.82421875 668.8084106445312 C 365.7042236328125 668.195068359375 367.7109069824219 666.1017456054688 369.84423828125 662.5283813476562 C 372.5509033203125 657.8150634765625 375.257568359375 650.0950927734375 377.9642333984375 639.368408203125 C 380.7109069824219 628.1550903320312 382.084228515625 619.7350463867188 382.084228515625 614.1083984375 C 382.084228515625 608.4817504882812 380.7109069824219 605.6484375 377.9642333984375 605.6083984375 C 374.82421875 605.6083984375 372.1175537109375 607.4817504882812 369.84423828125 611.2283935546875 C 367.0975646972656 615.7684326171875 364.26422119140625 623.6217651367188 361.34423828125 634.7883911132812 M 342.7542419433594 630.598388671875 C 345.72088623046875 619.1250610351562 349.930908203125 609.638427734375 355.3842468261719 602.138427734375 C 362.1908874511719 592.8450927734375 369.8042297363281 588.1984252929688 378.2242431640625 588.1984252929688 C 378.6175537109375 588.1984252929688 379.0108947753906 588.1984252929688 379.40423583984375 588.1984252929688 C 386.4242248535156 588.5917358398438 391.6142272949219 590.771728515625 394.9742431640625 594.7384033203125 C 398.2875671386719 598.6650390625 399.9442443847656 605.3417358398438 399.9442443847656 614.7684326171875 C 399.9442443847656 622.5750732421875 398.4609069824219 632.3450927734375 395.4942321777344 644.0784301757812 C 393.36090087890625 652.5383911132812 390.63421630859375 659.8450927734375 387.3142395019531 665.9984130859375 C 380.5542297363281 678.425048828125 372.1142272949219 684.638427734375 361.9942321777344 684.638427734375 C 355.0609130859375 684.638427734375 349.7608947753906 682.8717651367188 346.09423828125 679.33837890625 C 341.51422119140625 674.8050537109375 339.2242431640625 666.7584228515625 339.2242431640625 655.1984252929688 C 339.2242431640625 647.9583740234375 340.4009094238281 639.7584228515625 342.7542419433594 630.598388671875 ZM 420.2262268066406 634.7883911132812 C 417.6062316894531 644.7283935546875 416.2962341308594 652.8184204101562 416.2962341308594 659.0584106445312 C 416.2962341308594 665.7317504882812 417.779541015625 669.0684204101562 420.7462158203125 669.0684204101562 C 421.3995666503906 669.0684204101562 422.0528869628906 668.9817504882812 422.70623779296875 668.8084106445312 C 424.5862121582031 668.195068359375 426.5928955078125 666.1017456054688 428.7262268066406 662.5283813476562 C 431.4328918457031 657.8150634765625 434.1395568847656 650.0950927734375 436.8462219238281 639.368408203125 C 439.5928955078125 628.1550903320312 440.9662170410156 619.7350463867188 440.9662170410156 614.1083984375 C 440.9662170410156 608.4817504882812 439.5928955078125 605.6484375 436.8462219238281 605.6083984375 C 433.70623779296875 605.6083984375 430.9995422363281 607.4817504882812 428.7262268066406 611.2283935546875 C 425.97955322265625 615.7684326171875 423.1462097167969 623.6217651367188 420.2262268066406 634.7883911132812 M 401.63623046875 630.598388671875 C 404.6028747558594 619.1250610351562 408.8128967285156 609.638427734375 414.2662353515625 602.138427734375 C 421.0728759765625 592.8450927734375 428.68621826171875 588.1984252929688 437.1062316894531 588.1984252929688 C 437.4995422363281 588.1984252929688 437.89288330078125 588.1984252929688 438.2862243652344 588.1984252929688 C 445.30621337890625 588.5917358398438 450.4962158203125 590.771728515625 453.8562316894531 594.7384033203125 C 457.1695556640625 598.6650390625 458.82623291015625 605.3417358398438 458.82623291015625 614.7684326171875 C 458.82623291015625 622.5750732421875 457.3428955078125 632.3450927734375 454.376220703125 644.0784301757812 C 452.2428894042969 652.5383911132812 449.5162353515625 659.8450927734375 446.19622802734375 665.9984130859375 C 439.43621826171875 678.425048828125 430.9962158203125 684.638427734375 420.876220703125 684.638427734375 C 413.9429016113281 684.638427734375 408.64288330078125 682.8717651367188 404.9762268066406 679.33837890625 C 400.3962097167969 674.8050537109375 398.1062316894531 666.7584228515625 398.1062316894531 655.1984252929688 C 398.1062316894531 647.9583740234375 399.28289794921875 639.7584228515625 401.63623046875 630.598388671875 ZM 492.0582275390625 605.4083862304688 C 492.0582275390625 605.4083862304688 486.7815856933594 626.1050415039062 476.2282409667969 667.4984130859375 C 477.014892578125 667.5850830078125 478.54156494140625 667.62841796875 480.8082275390625 667.62841796875 C 486.8282470703125 667.58837890625 492.23492431640625 658.1683959960938 497.0282287597656 639.368408203125 C 499.0815734863281 631.0350952148438 500.04156494140625 623.598388671875 499.9082336425781 617.0584106445312 C 499.73492431640625 610.37841796875 498.4282531738281 606.6917114257812 495.9882507324219 605.9984130859375 C 495.0682373046875 605.7384033203125 493.75823974609375 605.541748046875 492.0582275390625 605.4083862304688 M 473.86822509765625 606.0584106445312 C 472.86822509765625 606.1917114257812 471.9082336425781 606.3450927734375 470.9882507324219 606.5184326171875 C 468.76824951171875 606.9583740234375 467.5482482910156 607.1784057617188 467.3282470703125 607.1784057617188 C 466.8948974609375 607.1784057617188 466.4815673828125 607.08837890625 466.0882263183594 606.9083862304688 C 464.8215637207031 606.388427734375 464.3182373046875 605.2550659179688 464.5782470703125 603.5084228515625 L 465.88824462890625 593.1683959960938 C 466.14825439453125 591.9083862304688 467.1515808105469 591.0383911132812 468.89825439453125 590.5584106445312 C 468.9848937988281 590.5584106445312 469.1148986816406 590.5350952148438 469.2882385253906 590.4884033203125 C 476.09490966796875 589.0484008789062 483.3815612792969 588.328369140625 491.14825439453125 588.328369140625 C 496.9482421875 588.328369140625 501.8749084472656 589.3317260742188 505.9282531738281 591.33837890625 C 514.4815673828125 595.5717163085938 518.7582397460938 603.9050903320312 518.7582397460938 616.33837890625 C 518.7582397460938 624.1450805664062 517.361572265625 633.3917236328125 514.5682373046875 644.0784301757812 C 512.7815551757812 650.83837890625 510.5782470703125 656.8583984375 507.958251953125 662.138427734375 C 500.49822998046875 677.0517578125 490.4015808105469 684.5084228515625 477.6682434082031 684.5084228515625 C 477.4015808105469 684.5084228515625 477.09490966796875 684.5084228515625 476.74822998046875 684.5084228515625 C 468.2415771484375 684.5084228515625 462.35491943359375 684.205078125 459.0882263183594 683.598388671875 C 458.514892578125 683.465087890625 458.0115661621094 683.3117065429688 457.5782470703125 683.138427734375 C 455.5315856933594 682.2650756835938 454.89825439453125 680.28173828125 455.6782531738281 677.1884155273438 L 473.86822509765625 606.0584106445312 ZM 545.9703979492188 631.37841796875 L 568.2203979492188 631.37841796875 C 570.61376953125 631.425048828125 571.527099609375 632.8217163085938 570.96044921875 635.5684204101562 L 569.3904418945312 643.2883911132812 C 569.2637329101562 643.8150634765625 569.0470581054688 644.33837890625 568.7404174804688 644.8583984375 C 567.7803955078125 646.2584228515625 566.603759765625 646.9583740234375 565.21044921875 646.9583740234375 L 541.9804077148438 646.9583740234375 L 533.2803955078125 681.1083984375 C 532.7537841796875 682.9817504882812 531.4437255859375 683.9417114257812 529.3504028320312 683.9884033203125 L 518.2304077148438 683.9884033203125 C 517.6637573242188 683.9884033203125 517.160400390625 683.8583984375 516.7203979492188 683.598388671875 C 515.5870971679688 682.8583984375 515.2171020507812 681.6350708007812 515.6104125976562 679.9284057617188 L 534.7803955078125 604.8184204101562 L 530.1404418945312 604.8184204101562 C 529.787109375 604.8184204101562 529.4570922851562 604.7950439453125 529.150390625 604.7484130859375 C 527.410400390625 604.4484252929688 526.910400390625 602.9017333984375 527.650390625 600.1083984375 L 529.7404174804688 591.8583984375 C 529.9137573242188 591.078369140625 530.1104125976562 590.4917602539062 530.3304443359375 590.098388671875 C 530.6370849609375 589.53173828125 531.3137817382812 589.2484130859375 532.3604125976562 589.2484130859375 L 541.910400390625 589.2484130859375 L 553.0404052734375 589.2484130859375 L 580.910400390625 589.2484130859375 C 583.4837646484375 589.2883911132812 584.487060546875 590.68505859375 583.92041015625 593.4384155273438 L 582.2203979492188 601.1583862304688 C 582.0870971679688 601.6784057617188 581.8471069335938 602.2017211914062 581.5004272460938 602.7283935546875 C 580.4937744140625 604.1217041015625 579.2504272460938 604.8184204101562 577.7704467773438 604.8184204101562 L 552.71044921875 604.8184204101562 L 545.9703979492188 631.37841796875 ZM 594.5171508789062 592.12841796875 C 595.0371704101562 590.2484130859375 596.3438110351562 589.2883911132812 598.4371337890625 589.2484130859375 L 609.567138671875 589.2484130859375 C 610.1337890625 589.2484130859375 610.6337890625 589.37841796875 611.067138671875 589.638427734375 C 612.2005004882812 590.37841796875 612.5704956054688 591.598388671875 612.1771240234375 593.2984008789062 L 589.80712890625 681.1083984375 C 589.280517578125 682.9817504882812 587.970458984375 683.9417114257812 585.8771362304688 683.9884033203125 L 574.7571411132812 683.9884033203125 C 574.1904907226562 683.9884033203125 573.6871337890625 683.8583984375 573.2471313476562 683.598388671875 C 572.1138305664062 682.8583984375 571.7438354492188 681.6350708007812 572.1371459960938 679.9284057617188 L 594.5171508789062 592.12841796875 ZM 638.4813842773438 638.3184204101562 C 638.4813842773438 638.3184204101562 647.8580932617188 638.3184204101562 666.6113891601562 638.3184204101562 C 667.9647216796875 638.3650512695312 668.3580932617188 639.3250732421875 667.7913818359375 641.1984252929688 L 665.701416015625 648.5283813476562 C 665.1747436523438 650.2684326171875 664.6080932617188 651.37841796875 664.0014038085938 651.8583984375 C 663.8681030273438 652.33837890625 663.69140625 652.8850708007812 663.471435546875 653.4984130859375 C 661.5114135742188 659.6517333984375 659.0914306640625 664.9950561523438 656.21142578125 669.5283813476562 C 649.798095703125 679.695068359375 641.9680786132812 684.7783813476562 632.721435546875 684.7783813476562 C 626.354736328125 684.7317504882812 621.3380737304688 683.0950927734375 617.67138671875 679.868408203125 C 612.5247192382812 675.2417602539062 609.951416015625 666.97509765625 609.951416015625 655.0684204101562 C 609.951416015625 648.3950805664062 611.17138671875 640.2384033203125 613.6113891601562 630.598388671875 C 616.5380859375 618.9050903320312 620.7913818359375 609.2850952148438 626.3713989257812 601.7384033203125 C 633.0914306640625 592.7117309570312 640.6181030273438 588.1984252929688 648.951416015625 588.1984252929688 C 653.7913818359375 588.3317260742188 658.1080932617188 589.465087890625 661.9014282226562 591.598388671875 C 663.0347290039062 592.2984008789062 664.0814208984375 593.1517333984375 665.0413818359375 594.1583862304688 C 668.8814086914062 598.1650390625 670.8013916015625 605.078369140625 670.8013916015625 614.8984375 C 670.8013916015625 616.9917602539062 669.9281005859375 618.3850708007812 668.181396484375 619.078369140625 L 653.4014282226562 623.5283813476562 C 653.134765625 623.6150512695312 652.8713989257812 623.6583862304688 652.6113891601562 623.6583862304688 C 651.5647583007812 623.705078125 651.084716796875 622.965087890625 651.17138671875 621.4384155273438 C 651.3447265625 617.291748046875 651.431396484375 614.8917236328125 651.431396484375 614.2384033203125 C 651.3914184570312 610.098388671875 650.5214233398438 607.7883911132812 648.8214111328125 607.3084106445312 C 648.4281005859375 607.175048828125 648.0347290039062 607.1083984375 647.6414184570312 607.1083984375 C 642.2747192382812 606.93505859375 637.1280517578125 616.1617431640625 632.201416015625 634.7883911132812 C 630.0614013671875 642.9884033203125 628.971435546875 650.205078125 628.931396484375 656.4384155273438 C 628.931396484375 663.0250854492188 630.1514282226562 666.6250610351562 632.5914306640625 667.2384033203125 C 633.9847412109375 667.5450439453125 635.4880981445312 667.175048828125 637.1014404296875 666.12841796875 C 640.548095703125 663.7684326171875 643.3180541992188 659.1217651367188 645.4114379882812 652.1884155273438 L 635.7313842773438 652.1884155273438 C 634.2047729492188 652.1017456054688 633.681396484375 650.8817138671875 634.1614379882812 648.5283813476562 L 636.5214233398438 639.888427734375 C 636.5614013671875 639.715087890625 636.624755859375 639.5184326171875 636.71142578125 639.2984008789062 C 637.01806640625 638.6450805664062 637.6080932617188 638.3184204101562 638.4813842773438 638.3184204101562 ZM 690.033447265625 592.12841796875 C 690.5601196289062 590.2484130859375 691.8701171875 589.2883911132812 693.9634399414062 589.2484130859375 L 705.0834350585938 589.2484130859375 C 705.6500854492188 589.2484130859375 706.1500854492188 589.37841796875 706.5834350585938 589.638427734375 C 707.7167358398438 590.37841796875 708.090087890625 591.598388671875 707.7034301757812 593.2984008789062 L 699.6534423828125 624.83837890625 L 724.7734375 624.83837890625 L 733.0834350585938 592.12841796875 C 733.610107421875 590.2484130859375 734.9201049804688 589.2883911132812 737.013427734375 589.2484130859375 L 748.1334228515625 589.2484130859375 C 748.7000732421875 589.2484130859375 749.2034301757812 589.37841796875 749.6434326171875 589.638427734375 C 750.7767333984375 590.37841796875 751.1467895507812 591.598388671875 750.75341796875 593.2984008789062 L 728.3734130859375 681.1083984375 C 727.8534545898438 682.9817504882812 726.5467529296875 683.9417114257812 724.4534301757812 683.9884033203125 L 713.3234252929688 683.9884033203125 C 712.7567749023438 683.9884033203125 712.2567749023438 683.8583984375 711.8234252929688 683.598388671875 C 710.6901245117188 682.8583984375 710.320068359375 681.6350708007812 710.7134399414062 679.9284057617188 L 720.783447265625 640.4083862304688 L 695.7234497070312 640.4083862304688 L 685.3234252929688 681.1083984375 C 684.7967529296875 682.9817504882812 683.4867553710938 683.9417114257812 681.3934326171875 683.9884033203125 L 670.2734375 683.9884033203125 C 669.706787109375 683.9884033203125 669.206787109375 683.8583984375 668.7734375 683.598388671875 C 667.6334228515625 682.8583984375 667.2600708007812 681.6350708007812 667.6534423828125 679.9284057617188 L 690.033447265625 592.12841796875 ZM 815.3919067382812 589.2484130859375 C 817.9652099609375 589.2484130859375 818.9685668945312 590.6450805664062 818.4019165039062 593.4384155273438 L 816.701904296875 601.1583862304688 C 816.568603515625 601.6784057617188 816.3285522460938 602.2017211914062 815.98193359375 602.7283935546875 C 814.9752197265625 604.1217041015625 813.73193359375 604.8184204101562 812.2518920898438 604.8184204101562 L 793.471923828125 604.8184204101562 L 774.0419311523438 681.1083984375 C 773.5152587890625 682.9817504882812 772.2052612304688 683.9417114257812 770.1119384765625 683.9884033203125 L 758.8619384765625 683.9884033203125 C 758.0752563476562 683.9884033203125 757.375244140625 683.6817626953125 756.7619018554688 683.0684204101562 C 756.1552734375 682.4617309570312 755.98193359375 681.6350708007812 756.2418823242188 680.58837890625 L 775.5419311523438 604.8184204101562 L 755.5919189453125 604.8184204101562 C 755.2852172851562 604.8184204101562 754.9552612304688 604.7950439453125 754.6019287109375 604.7484130859375 C 752.9019165039062 604.4484252929688 752.4019165039062 602.9017333984375 753.1019287109375 600.1083984375 L 755.19189453125 591.8583984375 C 755.3718872070312 591.205078125 755.568603515625 590.6817626953125 755.7819213867188 590.2883911132812 C 756.2619018554688 589.5950927734375 757.375244140625 589.2484130859375 759.1218872070312 589.2484130859375 L 815.3919067382812 589.2484130859375 ZM 824.8071899414062 676.2684326171875 C 824.8071899414062 678.1417236328125 824.260498046875 679.8850708007812 823.1671752929688 681.4984130859375 C 821.3405151367188 684.118408203125 818.6605224609375 685.4284057617188 815.127197265625 685.4284057617188 L 813.2971801757812 685.4284057617188 C 811.5038452148438 685.4284057617188 809.7371826171875 684.7083740234375 807.9971923828125 683.2684326171875 C 805.683837890625 681.26171875 804.5271606445312 678.9284057617188 804.5271606445312 676.2684326171875 C 804.5271606445312 674.348388671875 805.1138305664062 672.6017456054688 806.2871704101562 671.0283813476562 C 808.2071533203125 668.501708984375 810.933837890625 667.2384033203125 814.4671630859375 667.2384033203125 L 816.1671752929688 667.2384033203125 C 818.087158203125 667.2384033203125 819.8338623046875 667.9150390625 821.4071655273438 669.2684326171875 C 823.673828125 671.1417236328125 824.8071899414062 673.47509765625 824.8071899414062 676.2684326171875 M 812.6371459960938 655.7183837890625 C 812.6371459960938 655.7183837890625 817.4371948242188 634.12841796875 827.0371704101562 590.9484252929688 C 827.4705200195312 589.0750732421875 828.7771606445312 588.1150512695312 830.9571533203125 588.0684204101562 L 846.0072021484375 588.0684204101562 C 848.3204956054688 588.1150512695312 849.280517578125 589.118408203125 848.88720703125 591.078369140625 L 826.6371459960938 655.8583984375 C 826.030517578125 657.771728515625 824.7238159179688 658.7283935546875 822.7171630859375 658.7283935546875 L 815.5171508789062 658.7283935546875 C 813.203857421875 658.6884155273438 812.2438354492188 657.68505859375 812.6371459960938 655.7183837890625 Z" transform="matrix(0.8939977288246155, 0, 0, 0.8939977288246155, -195.32366943359375, -285.84820556640625)" style="fill: rgb(51, 51, 51); white-space: pre; color: rgb(51, 51, 51); fill-opacity: 1;"/><path d="M 309.7275085449219 627.813232421875 L 330.8074951171875 627.813232421875 C 333.0808410644531 627.8532104492188 333.947509765625 629.1765747070312 333.4075012207031 631.783203125 L 331.927490234375 639.1032104492188 C 331.80084228515625 639.5965576171875 331.59417724609375 640.0932006835938 331.3074951171875 640.5932006835938 C 330.3941650390625 641.9132080078125 329.2774963378906 642.5732421875 327.9574890136719 642.5732421875 L 305.9375 642.5732421875 L 297.6875 674.9432373046875 C 297.19415283203125 676.7232055664062 295.95416259765625 677.6332397460938 293.9674987792969 677.6732177734375 L 283.427490234375 677.6732177734375 C 282.8941650390625 677.6732177734375 282.42083740234375 677.5498657226562 282.00750732421875 677.30322265625 C 280.927490234375 676.5965576171875 280.57415771484375 675.4398803710938 280.947509765625 673.8331909179688 L 299.11749267578125 602.6431884765625 L 294.7174987792969 602.6431884765625 C 294.3841552734375 602.6431884765625 294.07415771484375 602.619873046875 293.7875061035156 602.5732421875 C 292.1341552734375 602.2865600585938 291.6575012207031 600.8198852539062 292.3575134277344 598.1732177734375 L 294.3475036621094 590.3632202148438 C 294.50750732421875 589.6165771484375 294.6908264160156 589.0565185546875 294.8974914550781 588.6832275390625 C 295.1908264160156 588.14990234375 295.83416748046875 587.8832397460938 296.8275146484375 587.8832397460938 L 305.87750244140625 587.8832397460938 L 316.4175109863281 587.8832397460938 L 342.8374938964844 587.8832397460938 C 345.2774963378906 587.9232177734375 346.2275085449219 589.24658203125 345.6875 591.8532104492188 L 344.0775146484375 599.1632080078125 C 343.9508361816406 599.6632080078125 343.72418212890625 600.159912109375 343.3974914550781 600.6531982421875 C 342.44415283203125 601.9798583984375 341.26416015625 602.6431884765625 339.85748291015625 602.6431884765625 L 316.10748291015625 602.6431884765625 L 309.7275085449219 627.813232421875 ZM 360.0732116699219 631.043212890625 C 357.5932312011719 640.4699096679688 356.35321044921875 648.1365356445312 356.35321044921875 654.043212890625 C 356.35321044921875 660.369873046875 357.7565612792969 663.533203125 360.563232421875 663.533203125 C 361.1832275390625 663.533203125 361.80322265625 663.4498901367188 362.4232177734375 663.283203125 C 364.2032165527344 662.7098999023438 366.1065673828125 660.7265625 368.1332092285156 657.3331909179688 C 370.6932067871094 652.8665771484375 373.2565612792969 645.5498657226562 375.8232116699219 635.3832397460938 C 378.42987060546875 624.7565307617188 379.73321533203125 616.7765502929688 379.73321533203125 611.4432373046875 C 379.73321533203125 606.10986328125 378.42987060546875 603.4232177734375 375.8232116699219 603.3832397460938 C 372.8432312011719 603.3832397460938 370.2798767089844 605.159912109375 368.1332092285156 608.7131958007812 C 365.52655029296875 613.01318359375 362.8398742675781 620.45654296875 360.0732116699219 631.043212890625 M 342.4632263183594 627.0732421875 C 345.2698974609375 616.1998901367188 349.2565612792969 607.20654296875 354.4232177734375 600.0932006835938 C 360.8765563964844 591.2865600585938 368.0932312011719 586.8832397460938 376.0732116699219 586.8832397460938 C 376.4465637207031 586.8832397460938 376.8165588378906 586.8832397460938 377.1832275390625 586.8832397460938 C 383.8432312011719 587.2565307617188 388.7632141113281 589.3265380859375 391.9432373046875 593.0932006835938 C 395.0832214355469 596.813232421875 396.6532287597656 603.1365356445312 396.6532287597656 612.063232421875 C 396.6532287597656 619.4631958007812 395.2498779296875 628.7232055664062 392.4432373046875 639.8432006835938 C 390.41656494140625 647.8632202148438 387.8332214355469 654.7898559570312 384.6932373046875 660.6232299804688 C 378.2798767089844 672.4031982421875 370.2798767089844 678.293212890625 360.6932067871094 678.293212890625 C 354.119873046875 678.293212890625 349.0965576171875 676.619873046875 345.62322998046875 673.273193359375 C 341.2832336425781 668.9732055664062 339.11322021484375 661.3432006835938 339.11322021484375 650.3832397460938 C 339.11322021484375 643.523193359375 340.2298889160156 635.7532348632812 342.4632263183594 627.0732421875 ZM 418.73126220703125 631.043212890625 C 416.25128173828125 640.4699096679688 415.0112609863281 648.1365356445312 415.0112609863281 654.043212890625 C 415.0112609863281 660.369873046875 416.41461181640625 663.533203125 419.2212829589844 663.533203125 C 419.8412780761719 663.533203125 420.4612731933594 663.4498901367188 421.0812683105469 663.283203125 C 422.86126708984375 662.7098999023438 424.7646179199219 660.7265625 426.791259765625 657.3331909179688 C 429.35125732421875 652.8665771484375 431.91461181640625 645.5498657226562 434.48126220703125 635.3832397460938 C 437.08795166015625 624.7565307617188 438.3912658691406 616.7765502929688 438.3912658691406 611.4432373046875 C 438.3912658691406 606.10986328125 437.08795166015625 603.4232177734375 434.48126220703125 603.3832397460938 C 431.50128173828125 603.3832397460938 428.93792724609375 605.159912109375 426.791259765625 608.7131958007812 C 424.1846008300781 613.01318359375 421.4979248046875 620.45654296875 418.73126220703125 631.043212890625 M 401.12127685546875 627.0732421875 C 403.9279479980469 616.1998901367188 407.91461181640625 607.20654296875 413.0812683105469 600.0932006835938 C 419.53460693359375 591.2865600585938 426.75128173828125 586.8832397460938 434.73126220703125 586.8832397460938 C 435.1046142578125 586.8832397460938 435.474609375 586.8832397460938 435.8412780761719 586.8832397460938 C 442.50128173828125 587.2565307617188 447.4212646484375 589.3265380859375 450.60125732421875 593.0932006835938 C 453.74127197265625 596.813232421875 455.311279296875 603.1365356445312 455.311279296875 612.063232421875 C 455.311279296875 619.4631958007812 453.9079284667969 628.7232055664062 451.10125732421875 639.8432006835938 C 449.0746154785156 647.8632202148438 446.49127197265625 654.7898559570312 443.35125732421875 660.6232299804688 C 436.93792724609375 672.4031982421875 428.93792724609375 678.293212890625 419.35125732421875 678.293212890625 C 412.7779235839844 678.293212890625 407.7546081542969 676.619873046875 404.2812805175781 673.273193359375 C 399.9412841796875 668.9732055664062 397.7712707519531 661.3432006835938 397.7712707519531 650.3832397460938 C 397.7712707519531 643.523193359375 398.887939453125 635.7532348632812 401.12127685546875 627.0732421875 ZM 489.6693115234375 603.1932373046875 C 489.6693115234375 603.1932373046875 484.6659851074219 622.8098754882812 474.6593322753906 662.043212890625 C 475.4059753417969 662.1298828125 476.8526611328125 662.1732177734375 478.99932861328125 662.1732177734375 C 484.70599365234375 662.1332397460938 489.8326416015625 653.2032470703125 494.37933349609375 635.3832397460938 C 496.3193359375 627.4832153320312 497.22930908203125 620.4332275390625 497.10931396484375 614.2332153320312 C 496.9426574707031 607.9065551757812 495.7026672363281 604.4132080078125 493.3893127441406 603.7532348632812 C 492.5159912109375 603.5065307617188 491.2760009765625 603.3198852539062 489.6693115234375 603.1932373046875 M 472.4293212890625 603.813232421875 C 471.4759826660156 603.9398803710938 470.56597900390625 604.0865478515625 469.6993103027344 604.2532348632812 C 467.5926513671875 604.6665649414062 466.43597412109375 604.8732299804688 466.22930908203125 604.8732299804688 C 465.81597900390625 604.8732299804688 465.42266845703125 604.7899169921875 465.04931640625 604.6232299804688 C 463.8493347167969 604.1298828125 463.3726501464844 603.0565185546875 463.61932373046875 601.4031982421875 L 464.85931396484375 591.6032104492188 C 465.1059875488281 590.4031982421875 466.0559997558594 589.5765380859375 467.7093200683594 589.1232299804688 C 467.7959899902344 589.1232299804688 467.92266845703125 589.1032104492188 468.0893249511719 589.063232421875 C 474.5359802246094 587.696533203125 481.4393310546875 587.01318359375 488.79931640625 587.01318359375 C 494.29931640625 587.01318359375 498.9693298339844 587.9631958007812 502.809326171875 589.8632202148438 C 510.9159851074219 593.8765258789062 514.9692993164062 601.773193359375 514.9692993164062 613.55322265625 C 514.9692993164062 620.9532470703125 513.64599609375 629.716552734375 510.99932861328125 639.8432006835938 C 509.3059997558594 646.2498779296875 507.2193298339844 651.95654296875 504.73931884765625 656.9631958007812 C 497.6659851074219 671.1032104492188 488.0926513671875 678.1732177734375 476.0193176269531 678.1732177734375 C 475.77264404296875 678.1732177734375 475.4859924316406 678.1732177734375 475.1593322753906 678.1732177734375 C 467.0926513671875 678.1732177734375 461.5093078613281 677.8832397460938 458.4093322753906 677.30322265625 C 457.8759765625 677.1765747070312 457.40264892578125 677.0299072265625 456.98931884765625 676.8632202148438 C 455.04266357421875 676.0365600585938 454.4426574707031 674.1565551757812 455.1893310546875 671.2232055664062 L 472.4293212890625 603.813232421875 ZM 543.6155395507812 627.813232421875 L 564.695556640625 627.813232421875 C 566.9688720703125 627.8532104492188 567.8355712890625 629.1765747070312 567.2955322265625 631.783203125 L 565.8155517578125 639.1032104492188 C 565.6889038085938 639.5965576171875 565.4822387695312 640.0932006835938 565.195556640625 640.5932006835938 C 564.2822265625 641.9132080078125 563.1655883789062 642.5732421875 561.8455810546875 642.5732421875 L 539.8255615234375 642.5732421875 L 531.5755615234375 674.9432373046875 C 531.0822143554688 676.7232055664062 529.8422241210938 677.6332397460938 527.8555908203125 677.6732177734375 L 517.3155517578125 677.6732177734375 C 516.7822265625 677.6732177734375 516.3088989257812 677.5498657226562 515.8955688476562 677.30322265625 C 514.8155517578125 676.5965576171875 514.4622192382812 675.4398803710938 514.8355712890625 673.8331909179688 L 533.0055541992188 602.6431884765625 L 528.6055908203125 602.6431884765625 C 528.272216796875 602.6431884765625 527.9622192382812 602.619873046875 527.675537109375 602.5732421875 C 526.022216796875 602.2865600585938 525.5455322265625 600.8198852539062 526.2455444335938 598.1732177734375 L 528.2355346679688 590.3632202148438 C 528.3955688476562 589.6165771484375 528.5789184570312 589.0565185546875 528.7855834960938 588.6832275390625 C 529.0789184570312 588.14990234375 529.7222290039062 587.8832397460938 530.715576171875 587.8832397460938 L 539.7655639648438 587.8832397460938 L 550.3055419921875 587.8832397460938 L 576.7255859375 587.8832397460938 C 579.1655883789062 587.9232177734375 580.1155395507812 589.24658203125 579.5755615234375 591.8532104492188 L 577.965576171875 599.1632080078125 C 577.8388671875 599.6632080078125 577.6122436523438 600.159912109375 577.2855834960938 600.6531982421875 C 576.3322143554688 601.9798583984375 575.1522216796875 602.6431884765625 573.7455444335938 602.6431884765625 L 549.9955444335938 602.6431884765625 L 543.6155395507812 627.813232421875 ZM 592.4712524414062 590.6132202148438 C 592.964599609375 588.833251953125 594.20458984375 587.9232177734375 596.1912841796875 587.8832397460938 L 606.7312622070312 587.8832397460938 C 607.2713012695312 587.8832397460938 607.7479248046875 588.0065307617188 608.1612548828125 588.2532348632812 C 609.234619140625 588.9532470703125 609.5845947265625 590.10986328125 609.2113037109375 591.7232055664062 L 588.0012817382812 674.9432373046875 C 587.5079345703125 676.7232055664062 586.2679443359375 677.6332397460938 584.2813110351562 677.6732177734375 L 573.7412719726562 677.6732177734375 C 573.2079467773438 677.6732177734375 572.734619140625 677.5498657226562 572.3212890625 677.30322265625 C 571.2412719726562 676.5965576171875 570.887939453125 675.4398803710938 571.2612915039062 673.8331909179688 L 592.4712524414062 590.6132202148438 ZM 636.9901733398438 634.3931884765625 C 636.9901733398438 634.3931884765625 645.8801879882812 634.3931884765625 663.6602172851562 634.3931884765625 C 664.940185546875 634.4332275390625 665.3101806640625 635.3399047851562 664.7702026367188 637.1132202148438 L 662.7902221679688 644.063232421875 C 662.2902221679688 645.716552734375 661.7535400390625 646.7698974609375 661.18017578125 647.2232055664062 C 661.0535278320312 647.6765747070312 660.8868408203125 648.1932373046875 660.68017578125 648.773193359375 C 658.8201904296875 654.6065673828125 656.52685546875 659.6732177734375 653.8001708984375 663.9732055664062 C 647.72021484375 673.5999145507812 640.296875 678.4132080078125 631.5302124023438 678.4132080078125 C 625.4968872070312 678.3732299804688 620.7435302734375 676.8232421875 617.2702026367188 673.7632446289062 C 612.3901977539062 669.3832397460938 609.9501953125 661.5498657226562 609.9501953125 650.2632446289062 C 609.9501953125 643.9365234375 611.1102294921875 636.20654296875 613.43017578125 627.0732421875 C 616.1968383789062 615.9932250976562 620.2268676757812 606.8765258789062 625.5202026367188 599.7232055664062 C 631.8868408203125 591.1632080078125 639.016845703125 586.8832397460938 646.9102172851562 586.8832397460938 C 651.5035400390625 587.0098876953125 655.5968627929688 588.0865478515625 659.190185546875 590.1132202148438 C 660.2635498046875 590.773193359375 661.2568359375 591.5798950195312 662.1702270507812 592.533203125 C 665.8035278320312 596.333251953125 667.6201782226562 602.8865356445312 667.6201782226562 612.1932373046875 C 667.6201782226562 614.1732177734375 666.7935180664062 615.4932250976562 665.1401977539062 616.1531982421875 L 651.1301879882812 620.3732299804688 C 650.883544921875 620.4598999023438 650.6368408203125 620.5032348632812 650.3901977539062 620.5032348632812 C 649.3968505859375 620.543212890625 648.940185546875 619.8399047851562 649.0202026367188 618.3931884765625 C 649.1868896484375 614.466552734375 649.2702026367188 612.1932373046875 649.2702026367188 611.5732421875 C 649.230224609375 607.639892578125 648.403564453125 605.446533203125 646.7902221679688 604.9932250976562 C 646.4168701171875 604.8732299804688 646.0435180664062 604.813232421875 645.6702270507812 604.813232421875 C 640.5902099609375 604.6465454101562 635.7135620117188 613.389892578125 631.0402221679688 631.043212890625 C 629.0135498046875 638.8165283203125 627.980224609375 645.6565551757812 627.940185546875 651.563232421875 C 627.940185546875 657.8098754882812 629.0968627929688 661.2199096679688 631.4102172851562 661.793212890625 C 632.730224609375 662.0865478515625 634.1568603515625 661.736572265625 635.690185546875 660.7432250976562 C 638.9568481445312 658.5098876953125 641.5802001953125 654.1065673828125 643.5601806640625 647.533203125 L 634.3901977539062 647.533203125 C 632.9435424804688 647.4532470703125 632.4468383789062 646.2965698242188 632.9002075195312 644.063232421875 L 635.1301879882812 635.8732299804688 C 635.1702270507812 635.7131958007812 635.2335205078125 635.5299072265625 635.3201904296875 635.3232421875 C 635.6068725585938 634.7032470703125 636.1635131835938 634.3931884765625 636.9901733398438 634.3931884765625 ZM 688.708251953125 590.6132202148438 C 689.2015991210938 588.833251953125 690.4415893554688 587.9232177734375 692.4282836914062 587.8832397460938 L 702.96826171875 587.8832397460938 C 703.5015869140625 587.8832397460938 703.9749755859375 588.0065307617188 704.3883056640625 588.2532348632812 C 705.46826171875 588.9532470703125 705.8215942382812 590.10986328125 705.4483032226562 591.7232055664062 L 697.8182983398438 621.6132202148438 L 721.6282958984375 621.6132202148438 L 729.50830078125 590.6132202148438 C 730.0015869140625 588.833251953125 731.2416381835938 587.9232177734375 733.228271484375 587.8832397460938 L 743.768310546875 587.8832397460938 C 744.3082885742188 587.8832397460938 744.7849731445312 588.0065307617188 745.1983032226562 588.2532348632812 C 746.2716064453125 588.9532470703125 746.62158203125 590.10986328125 746.248291015625 591.7232055664062 L 725.0382690429688 674.9432373046875 C 724.544921875 676.7232055664062 723.304931640625 677.6332397460938 721.3182983398438 677.6732177734375 L 710.7782592773438 677.6732177734375 C 710.2449340820312 677.6732177734375 709.7716064453125 677.5498657226562 709.3582763671875 677.30322265625 C 708.2782592773438 676.5965576171875 707.9249267578125 675.4398803710938 708.2982788085938 673.8331909179688 L 717.8482666015625 636.3732299804688 L 694.0982666015625 636.3732299804688 L 684.23828125 674.9432373046875 C 683.7449340820312 676.7232055664062 682.5049438476562 677.6332397460938 680.518310546875 677.6732177734375 L 669.978271484375 677.6732177734375 C 669.4382934570312 677.6732177734375 668.9616088867188 677.5498657226562 668.5482788085938 677.30322265625 C 667.4749755859375 676.5965576171875 667.1249389648438 675.4398803710938 667.498291015625 673.8331909179688 L 688.708251953125 590.6132202148438 ZM 810.364990234375 587.8832397460938 C 812.8049926757812 587.8832397460938 813.7550048828125 589.20654296875 813.2149658203125 591.8532104492188 L 811.60498046875 599.1632080078125 C 811.4783325195312 599.6632080078125 811.2516479492188 600.159912109375 810.9249877929688 600.6531982421875 C 809.9716796875 601.9798583984375 808.7916870117188 602.6431884765625 807.385009765625 602.6431884765625 L 789.594970703125 602.6431884765625 L 771.1749877929688 674.9432373046875 C 770.6749877929688 676.7232055664062 769.4349975585938 677.6332397460938 767.4550170898438 677.6732177734375 L 756.7849731445312 677.6732177734375 C 756.0449829101562 677.6732177734375 755.385009765625 677.3832397460938 754.8049926757812 676.80322265625 C 754.2249755859375 676.2232055664062 754.058349609375 675.4398803710938 754.3049926757812 674.4532470703125 L 772.60498046875 602.6431884765625 L 753.6849975585938 602.6431884765625 C 753.3983154296875 602.6431884765625 753.0883178710938 602.619873046875 752.7550048828125 602.5732421875 C 751.1416625976562 602.2865600585938 750.6683349609375 600.8198852539062 751.3350219726562 598.1732177734375 L 753.3150024414062 590.3632202148438 C 753.481689453125 589.7432250976562 753.6683349609375 589.24658203125 753.875 588.8732299804688 C 754.3283081054688 588.2131958007812 755.3816528320312 587.8832397460938 757.0349731445312 587.8832397460938 L 810.364990234375 587.8832397460938 ZM 822.1409301757812 670.3532104492188 C 822.1409301757812 672.1332397460938 821.624267578125 673.7865600585938 820.5909423828125 675.313232421875 C 818.8576049804688 677.793212890625 816.3142700195312 679.033203125 812.9609375 679.033203125 L 811.23095703125 679.033203125 C 809.53759765625 679.033203125 807.8609619140625 678.3532104492188 806.200927734375 676.9932250976562 C 804.0142822265625 675.0932006835938 802.9209594726562 672.8798828125 802.9209594726562 670.3532104492188 C 802.9209594726562 668.533203125 803.4776000976562 666.8798828125 804.5909423828125 665.3931884765625 C 806.4109497070312 662.9932250976562 808.9942626953125 661.793212890625 812.3409423828125 661.793212890625 L 813.9609375 661.793212890625 C 815.7742919921875 661.793212890625 817.4276123046875 662.4365234375 818.9209594726562 663.7232055664062 C 821.067626953125 665.49658203125 822.1409301757812 667.70654296875 822.1409301757812 670.3532104492188 M 810.6109619140625 650.8832397460938 C 810.6109619140625 650.8832397460938 815.1575927734375 630.4198608398438 824.2509765625 589.4932250976562 C 824.664306640625 587.7131958007812 825.904296875 586.80322265625 827.970947265625 586.76318359375 L 842.23095703125 586.76318359375 C 844.42431640625 586.80322265625 845.3342895507812 587.7532348632812 844.9609375 589.6132202148438 L 823.8809814453125 651.0032348632812 C 823.3009643554688 652.8232421875 822.0609741210938 653.7332153320312 820.1609497070312 653.7332153320312 L 813.3409423828125 653.7332153320312 C 811.1476440429688 653.6932373046875 810.2376098632812 652.7432250976562 810.6109619140625 650.8832397460938 Z" transform="matrix(0.8939977288246155, 0, 0, 0.8939977288246155, -197.56695556640625, -285.8482360839844)" style="fill: rgb(254, 254, 254); white-space: pre; color: rgb(51, 51, 51); fill-opacity: 1;"/></svg>